<svg width="18" height="18" viewBox="0 0 18 18" fill="none" xmlns="http://www.w3.org/2000/svg">
<g id="material-symbols:attach-money">
<path id="Vector" d="M8.26874 15.75V14.1375C7.60624 13.9875 7.03424 13.7 6.55274 13.275C6.07124 12.85 5.71824 12.25 5.49374 11.475L6.88124 10.9125C7.06874 11.5125 7.34699 11.9688 7.71599 12.2812C8.08499 12.5938 8.56924 12.75 9.16874 12.75C9.68124 12.75 10.1157 12.6343 10.4722 12.4028C10.8287 12.1713 11.0067 11.812 11.0062 11.325C11.0062 10.8875 10.8687 10.5408 10.5937 10.2847C10.3187 10.0288 9.68124 9.738 8.68124 9.4125C7.60624 9.075 6.86874 8.67175 6.46874 8.20275C6.06874 7.73375 5.86874 7.162 5.86874 6.4875C5.86874 5.675 6.13124 5.04375 6.65624 4.59375C7.18124 4.14375 7.71874 3.8875 8.26874 3.825V2.25H9.76874V3.825C10.3937 3.925 10.9095 4.15325 11.316 4.50975C11.7225 4.86625 12.0192 5.3005 12.2062 5.8125L10.8187 6.4125C10.6687 6.0125 10.4562 5.7125 10.1812 5.5125C9.90624 5.3125 9.53124 5.2125 9.05624 5.2125C8.50624 5.2125 8.08749 5.3345 7.79999 5.5785C7.51249 5.8225 7.36874 6.1255 7.36874 6.4875C7.36874 6.9 7.55624 7.225 7.93124 7.4625C8.30624 7.7 8.95624 7.95 9.88124 8.2125C10.7437 8.4625 11.397 8.8595 11.841 9.4035C12.285 9.9475 12.5067 10.5755 12.5062 11.2875C12.5062 12.175 12.2437 12.85 11.7187 13.3125C11.1937 13.775 10.5437 14.0625 9.76874 14.175V15.75H8.26874Z" fill="#157AFF"/>
</g>
</svg>
